<?xml version="1.0" encoding="utf-8"?>
<!-- Generator: Adobe Illustrator 26.2.1, SVG Export Plug-In . SVG Version: 6.00 Build 0)  -->
<svg version="1.1" id="Layer_1" xmlns="http://www.w3.org/2000/svg" xmlns:xlink="http://www.w3.org/1999/xlink" x="0px" y="0px"
	 viewBox="0 0 200 213.3" style="enable-background:new 0 0 200 213.3;" xml:space="preserve">
<style type="text/css">
	.st0{fill:#6B6866;}
</style>
<path class="st0" d="M187.7,34.9l-80-33.3c-2-0.8-5.5-1.5-7.7-1.5c-2.2,0-5.6,0.7-7.7,1.5l-80,33.3C4.9,38,0,45.2,0,53
	c0,107.5,78.8,160.4,100,160.4c21.3,0,100-53.4,100-160.4C200,45.2,195.1,38,187.7,34.9z M140,83.3c0,2.3-0.8,4.6-2.4,6.5l-40,46.7
	c-2.8,3.3-6.5,3.1-7.6,3.1c-2.6,0-5.2-1.1-7.1-2.9l-20-20c-2-1.6-2.9-4.2-2.9-7.1c0-5.3,4.3-10,10-10c2.6,0,5.1,1,7.1,2.9l12.4,12.4
	l33-38.5c2-2.3,4.8-3.5,7.6-3.5C137.7,73.3,140,80.3,140,83.3z"/>
</svg>
