<?xml version="1.0" encoding="UTF-8"?><svg xmlns="http://www.w3.org/2000/svg" viewBox="0 0 200 200"><defs><style>.c{fill:#6b6866;}</style></defs><g id="a"><path class="c" d="M137.5,100c0,8.671-.469,17.031-1.29,25H63.789c-.82-7.969-1.641-16.329-1.641-25s.82-17.031,1.641-25h72.421c.821,7.969,1.29,16.328,1.29,25Zm59.336-25c2.07,8.008,3.164,16.367,3.164,25s-1.093,16.992-3.164,25h-48.087c.821-8.047,1.25-16.758,1.25-25,0-8.594-.43-16.953-1.25-25h48.087Zm-4.102-12.5h-45.586c-3.907-24.945-11.641-45.852-21.602-59.202,30.625,8.066,55.469,30.273,67.188,59.202Zm-58.242,0H65.508c2.383-14.219,6.055-26.805,10.547-36.973,4.102-9.223,8.672-15.914,13.086-20.133,4.375-4.153,8.008-5.395,10.859-5.395s6.485,1.241,10.859,5.395c4.414,4.219,8.985,10.91,13.087,20.133,4.491,10.168,8.164,22.754,10.547,36.973Zm-127.223,0C18.98,33.57,43.828,11.363,74.453,3.298c-9.961,13.351-17.695,34.257-21.602,59.202H7.27Zm43.98,12.5c-.82,8.047-1.602,16.406-1.602,25,0,8.242,.781,16.953,1.602,25H3.15C1.094,116.992,0,108.632,0,100s1.094-16.992,3.15-25H51.25Zm24.805,99.453c-4.492-10.156-8.164-22.734-10.547-36.953h68.985c-2.383,14.219-6.055,26.797-10.547,36.953-4.102,9.257-8.672,15.937-13.087,20.156-4.374,4.141-8.008,5.39-11.21,5.39-2.5,0-6.133-1.25-10.508-5.39-4.414-4.219-8.984-10.899-13.086-20.156Zm-1.602,22.266c-30.625-8.087-55.473-30.273-67.184-59.219H52.852c3.906,24.961,11.641,45.859,21.602,59.219Zm51.094,0c9.961-13.36,17.695-34.258,21.602-59.219h45.586c-11.719,28.946-36.563,51.132-67.188,59.219Z"/></g><g id="b"/></svg>